<svg id="Layer_5" enable-background="new 0 0 64 64" height="512" viewBox="0 0 64 64" width="512" xmlns="http://www.w3.org/2000/svg"><path d="m60.302 19.548c-.515-2.018-1.316-3.946-2.388-5.75l1.438-2.388-6.763-6.762-2.388 1.438c-1.804-1.072-3.733-1.873-5.75-2.388l-.669-2.698h-9.564l-.67 2.698c-2.017.515-3.946 1.315-5.75 2.388l-2.388-1.438-6.763 6.762 1.438 2.388c-1.072 1.804-1.873 3.732-2.388 5.75l-2.697.67v9.564l2.689.668c.12.523.249 1.07.388 1.623l.067.268.395.395c.68-1.993 2.002-3.711 3.717-4.911-.156-.921-.256-1.86-.256-2.825 0-9.389 7.611-17 17-17s17 7.611 17 17-7.611 17-17 17c-.965 0-1.904-.1-2.825-.256-1.2 1.714-2.918 3.036-4.911 3.716l.395.395.268.067c.553.14 1.099.268 1.623.388l.668 2.69h9.564l.67-2.698c2.017-.515 3.946-1.315 5.75-2.388l2.388 1.438 6.763-6.763-1.438-2.387c1.072-1.804 1.873-3.732 2.388-5.75l2.697-.67v-9.564z" fill="#f0bc5e"/><path d="m39 7c-9.925 0-18 8.075-18 18 0 .774.074 1.566.186 2.379-1.98 1.556-3.41 3.753-3.939 6.26-.408 1.933-.301 3.91.305 5.764l-14.282 12.198c-1.443 1.232-2.27 3.027-2.27 4.923 0 3.571 2.905 6.476 6.476 6.476 1.897 0 3.692-.827 4.923-2.27l12.198-14.283c1.852.604 3.83.713 5.764.306 2.508-.529 4.705-1.959 6.261-3.939.81.112 1.602.186 2.378.186 9.925 0 18-8.075 18-18s-8.075-18-18-18zm-9.051 37.796c-1.783.374-3.614.219-5.291-.453l-.667-.268-13.113 15.357c-.851.997-2.091 1.568-3.402 1.568-2.468 0-4.476-2.008-4.476-4.476 0-1.311.572-2.552 1.569-3.403l15.355-13.114-.267-.666c-.672-1.677-.829-3.506-.453-5.29.642-3.047 2.898-5.562 5.887-6.564.971-.326 1.943-.488 2.912-.488.489 0 .976.041 1.461.124l-3.794 3.794c-.935.934-1.517 2.099-1.641 3.28-.166 1.59.383 3.146 1.507 4.269 1.123 1.123 2.676 1.681 4.267 1.505 1.181-.123 2.346-.705 3.281-1.64l3.794-3.794c.247 1.448.125 2.912-.365 4.372-1.002 2.988-3.517 5.244-6.564 5.887zm9.051-3.796c-.387 0-.78-.025-1.175-.056.224-.45.423-.915.586-1.399.806-2.402.78-4.92-.074-7.28l-.535-1.479-6.131 6.131c-.611.61-1.348.989-2.075 1.065-.989.1-1.95-.236-2.646-.931-.695-.695-1.035-1.66-.932-2.647.076-.726.454-1.462 1.065-2.073l6.131-6.131-1.479-.535c-2.36-.854-4.878-.88-7.281-.074-.484.162-.949.361-1.399.586-.03-.398-.055-.791-.055-1.177 0-8.822 7.178-16 16-16s16 7.178 16 16-7.178 16-16 16z"/><path d="m45 15v2h-4v4h-4v8h14v-14zm-6 8h2v4h-2zm4 4v-8h2v8zm6 0h-2v-10h2z"/><path d="m25.675 20.692 1.903.615c1.182-3.658 4.071-6.547 7.729-7.729l-.615-1.902c-4.267 1.379-7.638 4.749-9.017 9.016z"/><path d="m39 13v-2c-.726 0-1.45.056-2.154.165l.308 1.977c.602-.094 1.223-.142 1.846-.142z"/><path d="m8 53c-1.654 0-3 1.346-3 3s1.346 3 3 3 3-1.346 3-3-1.346-3-3-3zm0 4c-.551 0-1-.448-1-1s.449-1 1-1 1 .448 1 1-.449 1-1 1z"/><path d="m14.536 47.465h2v2h-2z" transform="matrix(.707 -.707 .707 .707 -29.72 25.18)"/><path d="m11.707 50.293h2v2h-2z" transform="matrix(.707 -.707 .707 .707 -32.548 24.009)"/><path d="m17.379 44.671h1.899v2h-1.899z" transform="matrix(.707 -.707 .707 .707 -26.926 26.337)"/><path d="m47.352 33.617 1.392 1.436c.515-.499.995-1.04 1.426-1.61l-1.595-1.207c-.371.488-.782.952-1.223 1.381z"/><path d="m44.351 35.744.893 1.789c.64-.318 1.261-.69 1.845-1.105l-1.156-1.631c-.502.354-1.034.674-1.582.947z"/><path d="m40.848 36.858.304 1.977c.712-.109 1.418-.275 2.098-.493l-.609-1.904c-.581.185-1.184.327-1.793.42z"/></svg>