<svg id="Gradient" height="512" viewBox="0 0 512 512" width="512" xmlns="http://www.w3.org/2000/svg" xmlns:xlink="http://www.w3.org/1999/xlink"><linearGradient id="linear-gradient" gradientUnits="userSpaceOnUse" x1="256" x2="256" y1="488" y2="24"><stop offset="0" stop-color="#12c2e9"/><stop offset=".5" stop-color="#c471ed"/><stop offset="1" stop-color="#f64f59"/></linearGradient><path d="m472 24h-432a24.028 24.028 0 0 0 -24 24v416a24.028 24.028 0 0 0 24 24h432a24.028 24.028 0 0 0 24-24v-416a24.028 24.028 0 0 0 -24-24zm-432 16h432a8.009 8.009 0 0 1 8 8v40h-448v-40a8.009 8.009 0 0 1 8-8zm432 432h-432a8.009 8.009 0 0 1 -8-8v-360h448v360a8.009 8.009 0 0 1 -8 8zm-360-408a8 8 0 1 1 8 8 8 8 0 0 1 -8-8zm-32 0a8 8 0 1 1 8 8 8 8 0 0 1 -8-8zm-32 0a8 8 0 1 1 8 8 8 8 0 0 1 -8-8zm48 240a8 8 0 0 1 8-8h32a8 8 0 0 1 0 16h-32a8 8 0 0 1 -8-8zm136 0a8 8 0 0 1 8-8h32a8 8 0 0 1 0 16h-32a8 8 0 0 1 -8-8zm136 0a8 8 0 0 1 8-8h32a8 8 0 0 1 0 16h-32a8 8 0 0 1 -8-8zm-248-136a56 56 0 0 0 -42.171 92.842c.175.205.353.408.538.6a55.985 55.985 0 0 0 83.265 0c.185-.2.364-.4.538-.6a56 56 0 0 0 -42.17-92.842zm-23.975 88a39.924 39.924 0 0 1 47.949 0 39.924 39.924 0 0 1 -47.949 0zm15.975-32a8 8 0 1 1 8 8 8.009 8.009 0 0 1 -8-8zm42.622 20.012a56.108 56.108 0 0 0 -13.858-8 24 24 0 1 0 -41.528 0 56.077 56.077 0 0 0 -13.858 8 40 40 0 1 1 69.244 0zm101.378-76.012a56 56 0 0 0 -42.171 92.842c.175.205.353.408.538.6a55.984 55.984 0 0 0 83.264 0c.183-.194.361-.394.535-.6a56 56 0 0 0 -42.166-92.842zm-23.975 88a39.924 39.924 0 0 1 47.949 0 39.924 39.924 0 0 1 -47.949 0zm15.975-32a8 8 0 1 1 8 8 8.009 8.009 0 0 1 -8-8zm42.622 20.013a56.08 56.08 0 0 0 -13.858-8 24 24 0 1 0 -41.528 0 56.077 56.077 0 0 0 -13.858 8 40 40 0 1 1 69.244 0zm101.378-76.013a56 56 0 0 0 -42.166 92.849c.174.2.352.4.535.6a55.982 55.982 0 0 0 83.262 0c.183-.194.361-.394.535-.6a56 56 0 0 0 -42.166-92.849zm-23.974 88a39.922 39.922 0 0 1 47.948 0 39.922 39.922 0 0 1 -47.948 0zm15.974-32a8 8 0 1 1 8 8 8.009 8.009 0 0 1 -8-8zm42.622 20.013a56.031 56.031 0 0 0 -13.858-8 24 24 0 1 0 -41.528 0 56.031 56.031 0 0 0 -13.858 8 40 40 0 1 1 69.244 0zm-114.622-100.013a8 8 0 0 1 -8 8h-96a8 8 0 0 1 0-16h96a8 8 0 0 1 8 8zm-136 264a8 8 0 0 1 -8 8h-96a8 8 0 0 1 0-16h96a8 8 0 0 1 8 8zm-24 32a8 8 0 0 1 -8 8h-48a8 8 0 0 1 0-16h48a8 8 0 0 1 8 8zm24-96a8 8 0 0 1 -8 8h-64a8 8 0 0 1 0-16h64a8 8 0 0 1 8 8zm0 32a8 8 0 0 1 -8 8h-96a8 8 0 0 1 0-16h96a8 8 0 0 1 8 8zm-112-32a8 8 0 1 1 8 8 8 8 0 0 1 -8-8zm248 64a8 8 0 0 1 -8 8h-96a8 8 0 0 1 0-16h96a8 8 0 0 1 8 8zm-24 32a8 8 0 0 1 -8 8h-48a8 8 0 0 1 0-16h48a8 8 0 0 1 8 8zm24-96a8 8 0 0 1 -8 8h-64a8 8 0 0 1 0-16h64a8 8 0 0 1 8 8zm0 32a8 8 0 0 1 -8 8h-96a8 8 0 0 1 0-16h96a8 8 0 0 1 8 8zm-112-32a8 8 0 1 1 8 8 8 8 0 0 1 -8-8zm248 64a8 8 0 0 1 -8 8h-96a8 8 0 0 1 0-16h96a8 8 0 0 1 8 8zm-24 32a8 8 0 0 1 -8 8h-48a8 8 0 0 1 0-16h48a8 8 0 0 1 8 8zm24-96a8 8 0 0 1 -8 8h-64a8 8 0 0 1 0-16h64a8 8 0 0 1 8 8zm0 32a8 8 0 0 1 -8 8h-96a8 8 0 0 1 0-16h96a8 8 0 0 1 8 8zm-104-24a8 8 0 1 1 8-8 8 8 0 0 1 -8 8z" fill="url(#linear-gradient)"/></svg>