<svg height="482pt" viewBox="0 0 482 482.00484" width="482pt" xmlns="http://www.w3.org/2000/svg" xmlns:xlink="http://www.w3.org/1999/xlink"><linearGradient id="a"><stop offset="0" stop-color="#00efd1"/><stop offset="1" stop-color="#00acea"/></linearGradient><linearGradient id="b" gradientTransform="matrix(1 0 0 -1 -14.995282 499.002465)" gradientUnits="userSpaceOnUse" x1="399" x2="399" xlink:href="#a" y1="502" y2="19.934"/><linearGradient id="c" gradientTransform="matrix(1 0 0 -1 -14.995282 499.002465)" gradientUnits="userSpaceOnUse" x1="399.173" x2="399.173" xlink:href="#a" y1="502" y2="19.934"/><linearGradient id="d" gradientTransform="matrix(1 0 0 -1 -14.995282 499.002465)" gradientUnits="userSpaceOnUse" x1="192.499" x2="192.499" xlink:href="#a" y1="502" y2="19.934"/><linearGradient id="e" gradientTransform="matrix(1 0 0 -1 -14.995282 499.002465)" gradientUnits="userSpaceOnUse" x1="192.436" x2="192.436" xlink:href="#a" y1="502" y2="19.934"/><path d="m473.203125 75.117188-12.210937-1.1875c-1.449219-4.628907-3.3125-9.113282-5.574219-13.402344l7.820312-9.402344c3.277344-3.953125 3.03125-9.742188-.570312-13.402344l-18.070313-18.320312c-3.640625-3.6875-9.496094-3.980469-13.488281-.675782l-9.445313 7.820313c-4.273437-2.277344-8.746093-4.171875-13.359374-5.652344l-1.1875-12.101562c-.519532-5.078125-4.855469-8.90625-9.960938-8.78906275h-25.957031c-5.105469-.11328125-9.4375 3.71484375-9.957031 8.79296875l-1.1875 12.210937c-4.625 1.445313-9.109376 3.3125-13.398438 5.570313l-9.40625-7.820313c-3.972656-3.292968-9.796875-3.027343-13.449219.617188l-18.3125 18.300781c-3.644531 3.648438-3.917969 9.46875-.628906 13.445313l7.820313 9.4375c-2.277344 4.28125-4.171876 8.753906-5.652344 13.367187l-12.160156 1.1875c-5.09375.511719-8.949219 4.839844-8.863282 9.957031v25.960938c-.082031 5.113281 3.765625 9.441406 8.855469 9.953125l12.242187 1.191406c1.453126 4.625 3.324219 9.109375 5.589844 13.398438l-7.8125 9.40625c-3.296875 3.972656-3.027344 9.796875.617188 13.449219l18.308594 18.316406c3.648437 3.644531 9.472656 3.917968 13.445312.628906l9.445312-7.820312c4.277344 2.28125 8.75 4.171874 13.363282 5.65625l1.1875 12.546874c.476562 5.167969 4.761718 9.148438 9.953125 9.246094h25.957031c5.191406-.09375 9.480469-4.078125 9.957031-9.246094l1.1875-12.4375c4.628907-1.484374 9.113281-3.386718 13.398438-5.683593l9.40625 7.765625c3.976562 3.289062 9.804687 3.007812 13.449219-.644532l18.308593-18.316406c3.652344-3.648437 3.925781-9.476562.632813-13.453125l-7.820313-9.445312c2.28125-4.28125 4.171875-8.757813 5.65625-13.375l11.878907-1.183594c5.074218-.523437 8.902343-4.851563 8.792968-9.953125v-25.960938c.113282-5.105468-3.71875-9.4375-8.800781-9.953124zm-11.199219 26.84375-9.734375.972656c-4.296875.429687-7.816406 3.605468-8.683593 7.839844-1.59375 7.238281-4.484376 14.125-8.535157 20.332031-2.355469 3.671875-2.058593 8.449219.730469 11.800781l6.496094 7.824219-5.429688 5.4375-7.820312-6.480469c-3.402344-2.816406-8.246094-3.066406-11.921875-.617188-6.148438 4.066407-13 6.953126-20.207031 8.511719-4.277344 1.011719-7.433594 4.640625-7.839844 9.019531l-.984375 10.398438h-7.796875l-.984375-10.398438c-.410157-4.355468-3.574219-7.953124-7.839844-8.917968-7.242187-1.632813-14.132813-4.5625-20.332031-8.644532-3.660156-2.375-8.4375-2.101562-11.800782.675782l-7.824218 6.464844-5.433594-5.445313 6.476562-7.824219c2.816407-3.402344 3.070313-8.25.617188-11.925781-4.066406-6.152344-6.953125-13.003906-8.511719-20.210937-.835937-4.226563-4.339843-7.410157-8.628906-7.839844l-10.011719-.984375v-7.800781l10.015625-.980469c4.308594-.425781 7.839844-3.601563 8.722657-7.839844 1.597656-7.242187 4.492187-14.128906 8.546874-20.335937 2.359376-3.671876 2.066407-8.445313-.722656-11.800782l-6.492187-7.824218 5.429687-5.433594 7.820313 6.476562c3.402343 2.816406 8.25 3.066406 11.925781.617188 6.148438-4.066406 13-6.953125 20.207031-8.511719 4.21875-.808594 7.40625-4.292969 7.839844-8.566406l.984375-9.945313h7.796875l.984375 9.949219c.425781 4.304687 3.605469 7.828125 7.839844 8.691406 7.238281 1.59375 14.128906 4.484375 20.335937 8.535157 3.671875 2.355468 8.445313 2.058593 11.796875-.730469l7.78125-6.457031 5.285156 5.34375-6.519531 7.867187c-2.816406 3.402344-3.070312 8.25-.621093 11.921875 4.070312 6.148438 6.957031 13 8.515624 20.207031.808594 4.222657 4.296876 7.410157 8.570313 7.839844l9.957031.984375zm0 0" fill="url(#b)"/><path d="m384.175781 50.535156c-26.238281 0-47.511719 21.273438-47.511719 47.515625 0 26.242188 21.273438 47.515625 47.511719 47.515625 26.242188 0 47.515625-21.273437 47.515625-47.515625-.027344-26.230469-21.285156-47.484375-47.515625-47.515625zm0 75.03125c-15.195312 0-27.511719-12.320312-27.511719-27.515625 0-15.195312 12.316407-27.515625 27.511719-27.515625 15.199219 0 27.515625 12.320313 27.515625 27.515625-.015625 15.191407-12.324218 27.5-27.515625 27.515625zm0 0" fill="url(#c)"/><path d="m345.921875 270.003906-29.441406-2.835937c-3.316407-12.179688-8.234375-23.863281-14.628907-34.75l18.6875-22.570313c3.273438-3.953125 3.015626-9.746094-.589843-13.398437l-34.289063-34.726563c-3.640625-3.695312-9.503906-3.988281-13.5-.675781l-22.625 18.738281c-10.878906-6.371094-22.542968-11.300781-34.695312-14.664062l-2.835938-29.25c-.507812-5.089844-4.832031-8.945313-9.945312-8.867188h-49.234375c-5.117188-.082031-9.445313 3.773438-9.953125 8.867188l-2.835938 29.332031c-12.179687 3.296875-23.863281 8.199219-34.75 14.574219l-22.570312-18.710938c-3.972656-3.292968-9.796875-3.027344-13.449219.621094l-34.726563 34.71875c-3.648437 3.648438-3.921874 9.472656-.632812 13.445312l18.742188 22.628907c-6.371094 10.878906-11.300782 22.539062-14.664063 34.691406l-29.179687 2.832031c-5.078126.515625-8.910157 4.847656-8.80078175 9.953125v49.234375c-.10937525 5.105469 3.72265575 9.4375 8.80078175 9.953125l29.300781 2.835938c3.292969 12.179687 8.1875 23.863281 14.558593 34.75l-18.726562 22.570312c-3.292969 3.972657-3.027344 9.796875.617188 13.449219l34.71875 34.726562c3.648437 3.648438 9.472656 3.921876 13.445312.632813l22.625-18.738281c10.878906 6.371094 22.539062 11.300781 34.691406 14.660156l2.835938 29.179688c.515625 5.078124 4.851562 8.902343 9.953125 8.792968h49.234375c5.101562.109375 9.433594-3.71875 9.953125-8.796875l2.835937-29.296875c12.175782-3.292968 23.859375-8.1875 34.746094-14.558594l22.570312 18.722657c3.972657 3.292969 9.796876 3.027343 13.449219-.617188l34.726563-34.71875c3.648437-3.648437 3.921875-9.472656.632812-13.445312l-18.738281-22.625c6.371094-10.882813 11.300781-22.546875 14.664063-34.703125l29.035156-2.828125c5.128906-.492188 9.046875-4.792969 9.070312-9.945313v-49.230468c-.015625-5.160157-3.945312-9.46875-9.082031-9.957032zm-10.917969 50.117188-27.058594 2.636718c-4.332031.417969-7.894531 3.585938-8.824218 7.839844-3.296875 14.785156-9.238282 28.855469-17.542969 41.527344-2.363281 3.664062-2.082031 8.441406.703125 11.800781l17.488281 21.121094-21.859375 21.855469-21.121094-17.5c-3.402343-2.816406-8.25-3.066406-11.925781-.617188-12.597656 8.332032-26.636719 14.25-41.398437 17.449219-4.222656.808594-7.410156 4.292969-7.84375 8.566406l-2.644532 27.203125h-31.070312l-2.644531-27.203125c-.425781-4.300781-3.605469-7.824219-7.84375-8.6875-14.78125-3.269531-28.851563-9.191406-41.527344-17.472656-3.671875-2.355469-8.449219-2.058594-11.800781.734375l-21.117188 17.507812-21.855468-21.84375 17.492187-21.117187c2.8125-3.402344 3.066406-8.246094.621094-11.917969-8.335938-12.597656-14.253907-26.636718-17.449219-41.402344-.8125-4.21875-4.296875-7.40625-8.574219-7.839843l-27.203125-2.652344v-31.066406l27.199219-2.640625c4.304687-.425782 7.832031-3.605469 8.695313-7.839844 3.269531-14.785156 9.1875-28.855469 17.472656-41.53125 2.355468-3.671875 2.058594-8.445312-.730469-11.796875l-17.5-21.132813 21.84375-21.851562 21.117187 17.492188c3.402344 2.816406 8.25 3.066406 11.925782.617187 12.59375-8.335937 26.632812-14.25 41.398437-17.445313 4.230469-.84375 7.414063-4.351562 7.839844-8.644531l2.640625-27.265625h31.070312l2.640626 27.269532c.425781 4.3125 3.601562 7.847656 7.84375 8.730468 14.785156 3.273438 28.851562 9.199219 41.527343 17.488282 3.667969 2.355468 8.445313 2.066406 11.800781-.722657l21.074219-17.46875 21.496094 21.765625-17.527344 21.164063c-2.816406 3.402343-3.070312 8.25-.621093 11.921875 8.335937 12.597656 14.253906 26.636718 17.449218 41.402344.9375 4.257812 4.515625 7.425781 8.859375 7.839843l27.484375 2.648438zm0 0" fill="url(#d)"/><path d="m177.441406 208.578125c-53.019531 0-96 42.980469-96 96s42.980469 96 96 96c53.019532 0 96-42.980469 96-96s-42.980468-96-96-96zm0 172c-41.972656 0-76-34.027344-76-76 0-41.976563 34.027344-76 76-76s76 34.023437 76 76c-.046875 41.953125-34.046875 75.953125-76 76zm0 0" fill="url(#e)"/></svg>