<svg height="502pt" viewBox="0 -3 502.208 502" width="502pt" xmlns="http://www.w3.org/2000/svg" xmlns:xlink="http://www.w3.org/1999/xlink"><linearGradient id="a" gradientUnits="userSpaceOnUse" x1="251.104" x2="251.104" y1="496.104" y2=".104"><stop offset="0" stop-color="#9f2fff"/><stop offset="1" stop-color="#0bb1d3"/></linearGradient><path d="m480.871094 208.105469 21.335937-64h-19.101562v-20.226563c0-25.117187-13.953125-47.695312-36.425781-58.933594l-3.574219-1.785156-3.578125 1.792969c-22.472656 11.230469-36.421875 33.816406-36.421875 58.925781v20.226563h-19.105469l21.335938 64h5.769531v64h-25.449219l10.671875 64h14.257813l-7 112h-32.480469v-256h-16v-6.671875c0-53.722656-34.296875-99.945313-83.816407-116.441406 2.382813-3.734376 3.816407-8.136719 3.816407-12.886719 0-10.417969-6.714844-19.21875-16-22.53125v-33.46875h-16v33.46875c-9.289063 3.3125-16 12.113281-16 22.53125 0 4.75 1.429687 9.152343 3.816406 12.878906-49.523437 16.496094-83.816406 62.726563-83.816406 116.449219v6.671875h-16v256h-32.488281l-7-112h14.253906l10.671875-64h-25.4375v-64h5.765625l21.335937-64h-19.101562v-20.226563c0-25.117187-13.953125-47.695312-36.425781-58.933594l-3.574219-1.785156-3.578125 1.785156c-22.472656 11.238282-36.421875 33.824219-36.421875 58.933594v20.226563h-19.105469l21.335938 64h5.769531v64h-25.449219l10.671875 64h14.257813l-6.992188 112h-16.488281v48h496v-48h-16.488281l-7-112h14.253906l10.671875-64h-25.4375v-64zm-37.765625-126.875c11.496093 6.953125 19.480469 18.066406 22.550781 30.875h-45.113281c3.082031-12.808594 11.066406-23.929688 22.5625-30.875zm-24 46.875h48v16h-48zm-88.335938 16h-32.066406c-1.960937-23.210938-12.03125-42.296875-21.933594-55.832031 24.566407 11.199218 43.726563 31.230468 54 55.832031zm-79.664062-96c4.414062 0 8 3.589843 8 8 0 4.300781-3.433594 7.773437-7.707031 7.933593l-.292969-.046874-.296875.046874c-4.273438-.160156-7.703125-3.632812-7.703125-7.933593 0-4.410157 3.582031-8 8-8zm.015625 34.855469c9.269531 9.128906 28.527344 31.34375 31.574218 61.144531h-63.175781c3.066407-29.691407 22.335938-51.984375 31.601563-61.144531zm-25.679688 5.3125c-9.90625 13.535156-19.984375 32.621093-21.9375 55.832031h-32.0625c10.269532-24.601563 29.429688-44.632813 54-55.832031zm-78.335937 119.832031h160v-16h-144v-6.671875c0-8.722656 1.117187-17.1875 3.085937-25.328125h169.824219c1.96875 8.140625 3.089844 16.605469 3.089844 25.328125v6.671875h-16v16h32v240h-16v-140.699219c0-24.382812-17.464844-44.992188-41.511719-49-6.960938-1.160156-13.28125-4.414062-18.273438-9.40625l-28.214843-28.207031-28.210938 28.207031c-4.992187 4.992188-11.308593 8.246094-18.269531 9.40625-24.058594 4.019531-41.519531 24.617188-41.519531 49v140.699219h-16zm145.222656 81.863281c-13.550781-2.265625-25.855469-8.585938-35.574219-18.273438l-5.648437-5.632812-5.648438 5.632812c-9.722656 9.6875-22.015625 16.007813-35.5625 18.273438-8.574219 1.429688-14.789062 8.757812-14.789062 17.4375v140.699219h-16v-140.699219c0-16.527344 11.832031-30.496094 28.140625-33.214844 10.28125-1.710937 19.601562-6.503906 26.960937-13.871094l16.898438-16.90625 16.894531 16.898438c7.359375 7.367188 16.679688 12.167969 26.960938 13.871094 16.3125 2.726562 28.144531 16.695312 28.144531 33.222656v140.699219h-16v-140.699219c0-8.671875-6.21875-16.007812-14.777344-17.4375zm-1.222656 17.4375v140.699219h-80v-140.699219c0-.832031.574219-1.511719 1.421875-1.652344 14.320312-2.394531 27.511718-8.433594 38.578125-17.59375 11.0625 9.160156 24.261719 15.199219 38.589843 17.59375.832032.140625 1.410157.820313 1.410157 1.652344zm-232-226.175781c11.496093 6.953125 19.480469 18.066406 22.550781 30.875h-45.105469c3.074219-12.808594 11.058594-23.929688 22.554688-30.875zm-24 46.875h48v16h-48zm-12.898438 32h73.800781l-10.664062 32h-52.472656zm52.898438 48v64h-32v-64zm-49.226563 112-5.328125-32h77.113281l-5.328124 32zm56.714844 128h-46.976562l7-112h32.96875zm400.511719 16v16h-464v-16zm-63.488281-16 7-112h32.96875l7 112zm62.039062-160-5.328125 32h-66.457031l-5.328125-32zm-54.550781-16v-64h32v64zm42.230469-80h-52.472657l-10.664062-32h73.800781zm0 0" fill="url(#a)"/></svg>