<svg height="512" viewBox="0 0 64 64" width="512" xmlns="http://www.w3.org/2000/svg" xmlns:xlink="http://www.w3.org/1999/xlink"><linearGradient id="linear-gradient" gradientUnits="userSpaceOnUse" x1="-.167" x2="62.854" y1="60.167" y2="-2.854"><stop offset="0" stop-color="#003f8a"/><stop offset=".518" stop-color="#00d7df"/><stop offset="1" stop-color="#006df0"/></linearGradient><linearGradient id="linear-gradient-2" x1="-5.417" x2="57.604" xlink:href="#linear-gradient" y1="54.917" y2="-8.104"/><linearGradient id="linear-gradient-3" x1="-1.917" x2="61.104" xlink:href="#linear-gradient" y1="58.417" y2="-4.604"/><linearGradient id="linear-gradient-4" x1="-1.667" x2="61.354" xlink:href="#linear-gradient" y1="58.667" y2="-4.354"/><path d="m60 11h-56a3 3 0 0 0 -3 3v28a3 3 0 0 0 3 3h21.523l-1.2 3h-2.323a1 1 0 0 0 -.948.684l-1 3a1 1 0 0 0 .948 1.316h22a1 1 0 0 0 .948-1.316l-1-3a1 1 0 0 0 -.948-.684h-2.323l-1.2-3h21.523a3 3 0 0 0 3-3v-28a3 3 0 0 0 -3-3zm-57 3a1 1 0 0 1 1-1h56a1 1 0 0 1 1 1v23h-58zm38.612 37h-19.224l.333-1h18.558zm-4.089-3h-11.046l1.2-3h8.646zm23.477-6a1 1 0 0 1 -1 1h-56a1 1 0 0 1 -1-1v-3h58z" fill="url(#linear-gradient)"/><path d="m5 42h7a1 1 0 0 0 0-2h-7a1 1 0 0 0 0 2z" fill="url(#linear-gradient-2)"/><path d="m15 42h1a1 1 0 0 0 0-2h-1a1 1 0 0 0 0 2z" fill="url(#linear-gradient-3)"/><g fill="url(#linear-gradient-4)"><path d="m42 22h-1.522a9.378 9.378 0 0 0 -.362-.873l1.076-1.077a1 1 0 0 0 0-1.414l-2.828-2.828a1 1 0 0 0 -1.414 0l-1.077 1.076a9.266 9.266 0 0 0 -.873-.362v-1.522a1 1 0 0 0 -1-1h-4a1 1 0 0 0 -1 1v1.522a9.266 9.266 0 0 0 -.873.362l-1.077-1.076a1 1 0 0 0 -1.414 0l-2.828 2.828a1 1 0 0 0 0 1.414l1.076 1.077a9.378 9.378 0 0 0 -.362.873h-1.522a1 1 0 0 0 -1 1v4a1 1 0 0 0 1 1h1.522a9.378 9.378 0 0 0 .362.873l-1.076 1.077a1 1 0 0 0 0 1.414l2.828 2.828a1 1 0 0 0 1.414 0l1.077-1.076a9.266 9.266 0 0 0 .873.362v1.522a1 1 0 0 0 1 1h4a1 1 0 0 0 1-1v-1.522a9.266 9.266 0 0 0 .873-.362l1.077 1.076a1 1 0 0 0 1.414 0l2.828-2.828a1 1 0 0 0 0-1.414l-1.076-1.077a9.378 9.378 0 0 0 .362-.873h1.522a1 1 0 0 0 1-1v-4a1 1 0 0 0 -1-1zm-1 4h-1.262a1 1 0 0 0 -.967.75 7 7 0 0 1 -.747 1.8 1 1 0 0 0 .155 1.216l.892.892-1.414 1.414-.892-.892a1 1 0 0 0 -1.216-.154 7 7 0 0 1 -1.8.745 1 1 0 0 0 -.75.968v1.261h-1.999v-1.262a1 1 0 0 0 -.75-.968 7 7 0 0 1 -1.8-.745 1 1 0 0 0 -1.216.154l-.892.892-1.414-1.414.892-.892a1 1 0 0 0 .155-1.216 7 7 0 0 1 -.747-1.8 1 1 0 0 0 -.967-.75h-1.261v-1.999h1.262a1 1 0 0 0 .967-.75 7 7 0 0 1 .747-1.8 1 1 0 0 0 -.155-1.216l-.892-.892 1.414-1.414.892.892a1 1 0 0 0 1.216.154 7 7 0 0 1 1.8-.745 1 1 0 0 0 .75-.968v-1.261h2v1.262a1 1 0 0 0 .75.968 7 7 0 0 1 1.8.745 1 1 0 0 0 1.216-.154l.892-.892 1.414 1.414-.892.892a1 1 0 0 0 -.155 1.216 7 7 0 0 1 .747 1.8 1 1 0 0 0 .967.75h1.26z"/><path d="m32 21a4 4 0 1 0 4 4 4 4 0 0 0 -4-4zm0 6a2 2 0 1 1 2-2 2 2 0 0 1 -2 2z"/></g></svg>