<?xml version="1.0" encoding="iso-8859-1"?>
<!-- Generator: Adobe Illustrator 21.0.0, SVG Export Plug-In . SVG Version: 6.00 Build 0)  -->
<svg xmlns="http://www.w3.org/2000/svg" xmlns:xlink="http://www.w3.org/1999/xlink" version="1.1" id="Capa_1" x="0px" y="0px" viewBox="0 0 512 512" style="enable-background:new 0 0 512 512;" xml:space="preserve" width="512" height="512">
<g>
	<g>
		<g>
			<path style="fill:#FFD844;" d="M15,276.164c3.839,0,7.678-1.465,10.606-4.394L222.975,74.367c5.858-5.859,5.858-15.358,0-21.216     c-5.857-5.859-15.355-5.859-21.213,0L4.394,250.553c-5.858,5.859-5.858,15.358,0,21.216C7.323,274.699,11.161,276.164,15,276.164     z"/>
			<path style="fill:#FFBF00;" d="M458.772,288.987c-5.857-5.859-15.355-5.859-21.213,0L240.19,486.389     c-5.858,5.859-5.858,15.358,0,21.216c2.929,2.93,6.768,4.394,10.606,4.394c3.838,0,7.678-1.465,10.606-4.394l197.369-197.402     C464.631,304.345,464.631,294.846,458.772,288.987z"/>
			<path style="fill:#FFD844;" d="M222.977,288.982c5.862,5.863,5.855,15.361,0,21.217L26.189,507.02     c-2.927,2.928-6.767,4.392-10.607,4.399c-3.84-0.007-7.679-1.471-10.607-4.399c-5.855-5.856-5.855-15.361,0-21.217     l196.788-196.821C207.618,283.127,217.122,283.127,222.977,288.982z"/>
			<path style="fill:#FFD844;" d="M158.709,214.709l-58.31,58.319c-5.858,5.858-5.858,15.358,0,21.216     c2.929,2.93,6.768,4.394,10.606,4.394c3.838,0,7.678-1.465,10.606-4.394l58.31-58.319c5.858-5.858,5.858-15.358,0-21.216     C174.066,208.851,164.568,208.85,158.709,214.709z"/>
			<path style="fill:#FFD844;" d="M69.041,304.392l-21.297,21.3c-5.858,5.859-5.858,15.358,0,21.217     c2.929,2.93,6.768,4.394,10.606,4.394c3.838,0,7.678-1.465,10.606-4.394l21.297-21.3c5.858-5.859,5.858-15.358,0-21.217     C84.397,298.533,74.899,298.535,69.041,304.392z"/>
			<path style="fill:#FFBF00;" d="M261.011,381.708c3.839,0,7.678-1.465,10.606-4.394l24.393-24.397     c5.858-5.859,5.858-15.358,0-21.216c-5.857-5.859-15.355-5.859-21.213,0l-24.393,24.397c-5.858,5.859-5.858,15.358,0,21.216     C253.334,380.244,257.173,381.708,261.011,381.708z"/>
			<path style="fill:#FFBF00;" d="M241.066,386.655c-5.857-5.859-15.355-5.859-21.213,0l-78.49,78.504     c-5.858,5.859-5.858,15.358,0,21.216c2.929,2.93,6.768,4.394,10.606,4.394c3.839,0,7.678-1.465,10.606-4.394l78.49-78.504     C246.924,402.013,246.924,392.514,241.066,386.655z"/>
		</g>
		<path style="fill:#FFBF00;" d="M4.975,507.02l218.001-218.038c5.862,5.863,5.855,15.361,0,21.217L26.189,507.02    c-2.927,2.928-6.767,4.392-10.607,4.399C11.742,511.412,7.903,509.948,4.975,507.02z"/>
		<path style="fill:#55696E;" d="M458.769,53.151C493.099,87.487,512,133.124,512,181.682c0,48.544-18.901,94.195-53.224,128.524    c-35.426,35.432-81.975,53.148-128.51,53.155c-46.535-0.007-93.069-17.723-128.503-53.162    c-34.323-34.329-53.231-79.973-53.231-128.517c0-48.558,18.908-94.203,53.231-128.531    C272.623-17.72,387.917-17.713,458.769,53.151z"/>
		<path style="fill:#323C3C;" d="M458.769,53.151C493.099,87.487,512,133.124,512,181.682c0,48.544-18.901,94.195-53.224,128.524    c-35.426,35.432-81.975,53.148-128.51,53.155c-46.535-0.007-93.069-17.723-128.503-53.162L458.769,53.151z"/>
	</g>
	<path style="fill:#FFFFFF;" d="M412.14,263.58c-22.57,22.58-52.22,33.86-81.87,33.86c-29.66,0-59.31-11.28-81.88-33.86l-0.01-0.01   c-45.13-45.14-45.13-118.59,0.01-163.74c21.87-21.87,50.95-33.91,81.88-33.91c30.91,0,59.98,12.03,81.85,33.89   c0.01,0.01,0.01,0.01,0.02,0.02C457.29,144.98,457.29,218.44,412.14,263.58z"/>
	<path style="fill:#EEE9E8;" d="M412.14,263.58c-22.57,22.58-52.22,33.86-81.87,33.86c-29.66,0-59.31-11.28-81.88-33.86l-0.01-0.01   L412.12,99.81c0.01,0.01,0.01,0.01,0.02,0.02C457.29,144.98,457.29,218.44,412.14,263.58z"/>
	<path style="fill:#55696E;" d="M330.266,96.957c-8.284,0-15,6.716-15,15v16.734c0,8.284,6.716,15,15,15s15-6.716,15-15v-16.734   C345.266,103.673,338.55,96.957,330.266,96.957z"/>
	<path style="fill:#323C3C;" d="M330.266,219.859c-8.284,0-15,6.716-15,15v16.734c0,8.284,6.716,15,15,15s15-6.716,15-15v-16.734   C345.266,226.575,338.55,219.859,330.266,219.859z"/>
	<path style="fill:#323C3C;" d="M400.084,166.707H383.35c-8.284,0-15,6.716-15,15s6.716,15,15,15h16.734c8.284,0,15-6.716,15-15   S408.368,166.707,400.084,166.707z"/>
	<path style="fill:#55696E;" d="M292.183,181.707c0-8.284-6.716-15-15-15h-16.734c-8.284,0-15,6.716-15,15s6.716,15,15,15h16.734   C285.467,196.707,292.183,189.992,292.183,181.707z"/>
	<path style="fill:#55696E;" d="M291.527,121.824c-5.857-5.858-15.355-5.858-21.213,0c-5.858,5.858-5.858,15.355,0,21.213   l11.833,11.833c2.929,2.929,6.768,4.394,10.606,4.394s7.678-1.464,10.606-4.394c5.858-5.858,5.858-15.355,0-21.213L291.527,121.824   z"/>
	<path style="fill:#323C3C;" d="M378.433,208.728c-5.857-5.858-15.355-5.858-21.213,0c-5.858,5.858-5.858,15.355,0,21.213   l11.833,11.833c2.929,2.929,6.768,4.394,10.606,4.394s7.678-1.464,10.606-4.394c5.858-5.858,5.858-15.355,0-21.213L378.433,208.728   z"/>
	<path style="fill:#55696E;" d="M390.22,142.99l-11.84,11.83c-2.92,2.93-6.76,4.4-10.6,4.4s-7.68-1.47-10.61-4.4l-0.01-0.01   c-5.85-5.86-5.85-15.34,0.01-21.2L369,121.78c5.85-5.85,15.34-5.86,21.2-0.01c0.01,0,0.01,0,0.02,0.01   C396.08,127.63,396.08,137.13,390.22,142.99z"/>
	<path style="fill:#55696E;" d="M303.31,229.89l-11.83,11.84c-2.93,2.93-6.77,4.39-10.61,4.39c-3.84,0-7.67-1.46-10.6-4.39   c-0.01-0.01-0.01-0.01-0.01-0.02c-5.85-5.86-5.84-15.35,0.01-21.2l11.83-11.83c5.86-5.86,15.35-5.86,21.2-0.01l0.01,0.01   C309.17,214.54,309.17,224.04,303.31,229.89z"/>
	<path style="fill:#323C3C;" d="M303.31,208.68c5.86,5.86,5.86,15.36,0,21.21l-11.83,11.84c-2.93,2.93-6.77,4.39-10.61,4.39   c-3.84,0-7.67-1.46-10.6-4.39c-0.01-0.01-0.01-0.01-0.01-0.02l33.04-33.04L303.31,208.68z"/>
	<path style="fill:#323C3C;" d="M390.22,142.99l-11.84,11.83c-2.92,2.93-6.76,4.4-10.6,4.4s-7.68-1.47-10.61-4.4l-0.01-0.01   l33.04-33.04c0.01,0,0.01,0,0.02,0.01C396.08,127.63,396.08,137.13,390.22,142.99z"/>
</g>















</svg>
