<svg height="512pt" viewBox="-73 0 512 512.15596" width="512pt" xmlns="http://www.w3.org/2000/svg"><path d="m237.410156 68.421875c.046875 23.078125-13.257812 44.097656-34.132812 53.929687h-51.199219c-23.066406-10.953124-36.617187-35.351562-33.726563-60.722656 2.890626-25.367187 21.589844-46.09375 46.523438-51.574218 4.210938-.894532 8.5-1.351563 12.800781-1.367188 15.84375 0 31.035157 6.296875 42.238281 17.496094 11.203126 11.203125 17.496094 26.398437 17.496094 42.238281zm0 0" fill="#a4c2f7"/><path d="m211.808594 68.421875c.050781 23.078125-13.253906 44.097656-34.132813 53.929687h-25.597656c-23.066406-10.953124-36.617187-35.351562-33.726563-60.722656 2.890626-25.367187 21.589844-46.09375 46.523438-51.574218 27.414062 6.015624 46.945312 30.300781 46.933594 58.367187zm0 0" fill="#e3e7f2"/><path d="m356.875 240.539062v135.082032s0 45.996094-29.097656 72.621094c-3.292969 3.160156-5.121094 7.550781-5.035156 12.117187v26.195313c-.027344 9.414062-7.652344 17.039062-17.066407 17.066406h-136.53125c-9.414062-.027344-17.039062-7.652344-17.066406-17.066406v-3.15625c.015625-13.679688-5.492187-26.789063-15.277344-36.351563-16.46875-16.042969-41.898437-43.777344-52.992187-71.425781-17.066406-42.664063-51.199219-102.398438-68.265625-119.464844-17.066407-17.066406 0-34.132812 17.066406-34.132812s51.199219 34.132812 68.265625 59.734374c5.429688 8.234376 11.789062 15.824219 18.945312 22.613282 4.246094 3.949218 10.214844 5.460937 15.828126 4.007812 5.617187-1.449218 10.105468-5.664062 11.90625-11.175781 3.25-10.523437 4.777343-21.503906 4.523437-32.515625v-196.265625c-.054687-10.847656 6.808594-20.523437 17.066406-24.0625 2.722657-1.035156 5.617188-1.554687 8.53125-1.535156 14.140625 0 25.601563 11.460937 25.601563 25.597656v102.402344c-.050782-10.851563 6.8125-20.527344 17.066406-24.066407 2.726562-1.03125 5.617188-1.554687 8.53125-1.535156 14.140625 0 25.601562 11.460938 25.601562 25.601563v25.597656c0-6.789063 2.703126-13.296875 7.507813-18.089844 2.671875-2.714843 5.949219-4.761719 9.558594-5.972656 2.726562-1.035156 5.621093-1.554687 8.535156-1.535156 14.136719 0 25.597656 11.460937 25.597656 25.597656v42.667969c0-6.789063 2.703125-13.296875 7.511719-18.089844 2.671875-2.714844 5.945312-4.761719 9.554688-5.976562 3.328124-1.222657 6.878906-1.714844 10.410156-1.449219 13.710937 1.464843 24.019531 13.179687 23.722656 26.964843zm0 0" fill="#e3e7f2"/><path d="m356.875 240.539062v135.082032s0 45.996094-29.097656 72.621094c-3.292969 3.160156-5.121094 7.550781-5.035156 12.117187v26.195313c-.027344 9.414062-7.652344 17.039062-17.066407 17.066406h-25.597656c9.414063-.027344 17.039063-7.652344 17.066406-17.066406v-26.195313c-.085937-4.566406 1.738281-8.957031 5.035157-12.117187 29.097656-26.625 29.097656-72.621094 29.097656-72.621094v-135.082032c.078125-9.53125-4.804688-18.414062-12.886719-23.464843 1.367187-.855469 2.828125-1.542969 4.351563-2.050781 3.328124-1.222657 6.878906-1.714844 10.410156-1.449219 13.710937 1.464843 24.019531 13.179687 23.722656 26.964843zm0 0" fill="#a4c2f7"/><path d="m118.457031 303.089844c-2.980469 3.484375-7.261719 5.597656-11.84375 5.839844-4.582031.242187-9.0625-1.40625-12.390625-4.558594-7.160156-6.789063-13.515625-14.378906-18.945312-22.613282-13.652344-20.566406-38.402344-46.59375-56.40625-56.066406 4.195312-2.363281 8.921875-3.625 13.738281-3.667968 17.066406 0 51.199219 34.132812 68.265625 59.734374 5.109375 7.699219 11 14.847657 17.582031 21.332032zm0 0" fill="#a4c2f7"/><path d="m117.945312 68.421875c-.050781 23.078125 13.253907 44.097656 34.132813 53.929687v142.335938c.253906 11.011719-1.273437 21.992188-4.523437 32.515625-.765626 2.152344-1.957032 4.132813-3.5 5.816406.460937.445313.929687.941407 1.367187 1.351563 4.246094 3.949218 10.214844 5.460937 15.828125 4.007812 5.617188-1.449218 10.101562-5.664062 11.902344-11.175781 3.25-10.523437 4.777344-21.503906 4.523437-32.515625v-142.335938c-23.042969-10.949218-36.585937-35.328124-33.710937-60.679687s21.53125-46.078125 46.445312-51.589844c-4.183594-.921875-8.453125-1.386719-12.734375-1.394531-4.300781.015625-8.589843.472656-12.800781 1.367188-27.410156 6.015624-46.941406 30.300781-46.929688 58.367187zm0 0" fill="#fff"/><path d="m15.542969 256.15625c17.066406 17.066406 51.199219 76.800781 68.265625 119.464844 11.09375 27.648437 36.523437 55.382812 52.992187 71.425781 9.785157 9.5625 15.292969 22.671875 15.277344 36.351563v3.15625c.027344 9.414062 7.652344 17.039062 17.066406 17.066406h25.597657c-9.414063-.027344-17.039063-7.652344-17.066407-17.066406v-3.15625c.019531-13.679688-5.488281-26.789063-15.273437-36.351563-16.46875-16.042969-41.898438-43.777344-52.992188-71.425781-17.066406-42.664063-51.199218-102.398438-68.265625-119.464844-5.011719-3.78125-7.65625-9.925781-6.957031-16.167969.699219-6.238281 4.644531-11.644531 10.371094-14.21875-3.636719-2.164062-7.730469-3.445312-11.949219-3.746093-1.140625.003906-2.28125.082031-3.414063.238281-.332031.042969-.65625.121093-.988281.179687-.785156.128906-1.570312.273438-2.347656.476563-.46875.121093-.921875.273437-1.382813.417969-.460937.144531-1.152343.359374-1.707031.582031-.554687.222656-1.285156.527343-1.917969.851562-.265624.121094-.519531.238281-.777343.375-.390625.199219-.808594.359375-1.195313.574219l.09375.058594c-5.722656 2.574218-9.667968 7.976562-10.371094 14.210937-.703124 6.238281 1.933594 12.382813 6.941407 16.167969zm0 0" fill="#fff"/><path d="m21.578125 250.121094c6.628906 7.234375 12.625 15.023437 17.917969 23.28125 5.265625 7.875 10.148437 15.898437 14.875 23.996094 9.453125 16.210937 18.140625 32.757812 26.214844 49.695312 3.914062 8.332031 7.679687 16.761719 11.132812 25.363281l-15.835938 6.332031c-3.328124-8.183593-6.929687-16.324218-10.726562-24.398437-7.832031-16.441406-16.339844-32.65625-25.53125-48.390625-4.582031-7.867188-9.328125-15.652344-14.335938-23.132812-4.683593-7.316407-9.964843-14.230469-15.785156-20.679688zm0 0" fill="#fff"/><g fill="#428dff"><path d="m60.769531 308.671875c-1.140625-1.976563-2.984375-3.445313-5.160156-4.125l-1.613281-.269531c-.570313-.046875-1.144532-.015625-1.707032.09375-.542968.023437-1.078124.132812-1.589843.3125-.53125.203125-1.054688.433594-1.558594.699218-1.9375 1.148438-3.378906 2.972657-4.046875 5.121094-.277344 1.082032-.347656 2.207032-.203125 3.3125.433594 3.367188 2.789063 6.171875 6.03125 7.183594 1.082031.285156 2.210937.359375 3.320313.222656 1.113281-.101562 2.195312-.421875 3.183593-.9375 2.015625-1.070312 3.511719-2.914062 4.148438-5.109375.632812-2.191406.347656-4.550781-.785157-6.53125zm0 0"/><path d="m1.78125 232.433594c-3.957031 10.554687-.867188 22.460937 7.730469 29.753906 7.160156 8.046875 13.589843 16.714844 19.214843 25.898438 2.554688 3.902343 7.746094 5.0625 11.71875 2.621093 1.929688-1.210937 3.296876-3.140625 3.792969-5.363281.5-2.222656.089844-4.554688-1.140625-6.472656-6.269531-10.226563-13.472656-19.851563-21.519531-28.75-4.0625-4.058594-5.421875-7.816406-4.039063-11.160156 3.09375-5.359376 8.882813-8.589844 15.070313-8.40625 11.597656 0 43.042969 28.75 61.167969 55.9375 5.785156 8.773437 12.550781 16.859374 20.164062 24.105468 4.6875 4.429688 10.890625 6.902344 17.339844 6.90625 11.0625-.019531 20.871094-7.105468 24.371094-17.597656 3.53125-11.398438 5.207031-23.289062 4.957031-35.21875v-196.265625c0-9.425781 7.640625-17.066406 17.066406-17.066406s17.066407 7.640625 17.066407 17.066406v179.199219c0 4.714844 3.820312 8.535156 8.535156 8.535156 4.710937 0 8.53125-3.820312 8.53125-8.535156v-76.796875c0-9.425781 7.644531-17.066407 17.066406-17.066407 9.425781 0 17.070312 7.640626 17.070312 17.066407v76.796875c0 4.714844 3.820313 8.535156 8.53125 8.535156 4.714844 0 8.535157-3.820312 8.535157-8.535156v-51.199219c0-9.425781 7.640625-17.066406 17.066406-17.066406s17.066406 7.640625 17.066406 17.066406v59.734375c0 4.710938 3.820313 8.53125 8.53125 8.53125 4.714844 0 8.535157-3.820312 8.535157-8.53125v-17.066406c-.011719-4.527344 1.792968-8.871094 5.007812-12.058594 3.519531-3.488281 8.367188-5.296875 13.3125-4.964844 9.21875 1.203125 16.039062 9.171875 15.8125 18.464844v135.089844c0 .417968-.433594 42.667968-26.316406 66.324218-5.058594 4.769532-7.894532 11.441407-7.816406 18.394532v26.214844c0 4.714843-3.820313 8.535156-8.535157 8.535156h-136.53125c-4.714843 0-8.535156-3.820313-8.535156-8.535156v-3.121094c.011719-15.996094-6.414063-31.324219-17.824219-42.53125-14.457031-14.035156-40.3125-41.609375-51.046875-68.453125-3.492187-8.597657-7.207031-17.046875-11.136719-25.34375l-3.761718-7.792969c-1.003906-2.042969-2.777344-3.597656-4.933594-4.324219-2.15625-.730469-4.511719-.566406-6.546875.449219-4.160156 2.121094-5.871094 7.175781-3.847656 11.386719l3.660156 7.574219c3.800781 8.074218 7.398437 16.214843 10.71875 24.390624 11.316406 28.277344 36.164063 56.039063 55.015625 74.351563 8.113281 7.988281 12.667969 18.90625 12.636719 30.292969v3.121094c0 14.140624 11.460937 25.601562 25.601562 25.601562h136.53125c14.140625 0 25.601563-11.460938 25.601563-25.601562v-26.214844c-.078125-2.167969.746094-4.273438 2.277344-5.808594 31.496093-28.800781 31.855468-76.878906 31.855468-78.910156v-135.089844c.316406-18.273438-13.460937-33.722656-31.648437-35.488281-6.835938-.449219-13.648438 1.171875-19.550781 4.648437v-13.269531c.070312-12.296875-6.515626-23.667969-17.21875-29.726563-10.699219-6.058593-23.839844-5.855468-34.347657.535157-1.09375-11.511719-8.007812-21.660157-18.316406-26.890625-10.3125-5.230469-22.582031-4.820313-32.519531 1.09375v-14.132813c21.179687-12.019531 34.226562-34.527343 34.136718-58.878906 0-37.703125-30.566406-68.265625-68.269531-68.265625s-68.265625 30.5625-68.265625 68.265625c-.089844 24.351563 12.957032 46.859375 34.132813 58.878906v137.386719c.242187 10.074219-1.128907 20.117188-4.0625 29.757812-.914063 2.847657-3.246094 5.019532-6.152344 5.734376-2.734375.691406-5.632813-.070313-7.679687-2.015626-6.664063-6.355468-12.585938-13.449218-17.644532-21.144531-14.808594-22.152343-52.070312-63.53125-75.394531-63.53125-13.101563-.273437-25.152344 7.132813-30.828125 18.945313zm124.695312-164.011719c0-28.277344 22.921876-51.199219 51.199219-51.199219 28.277344 0 51.199219 22.921875 51.199219 51.199219.082031 14.601563-6.136719 28.527344-17.066406 38.214844v-38.214844c0-18.851563-15.28125-34.132813-34.132813-34.132813-18.851562 0-34.132812 15.28125-34.132812 34.132813v38.214844c-10.925781-9.6875-17.148438-23.613281-17.066407-38.214844zm0 0"/><path d="m331.277344 358.554688v-51.199219c0-4.710938-3.820313-8.53125-8.535156-8.53125-4.710938 0-8.53125 3.820312-8.53125 8.53125v51.199219c0 4.714843 3.820312 8.535156 8.53125 8.535156 4.714843 0 8.535156-3.820313 8.535156-8.535156zm0 0"/><path d="m308.175781 403.722656c-2.21875 2.144532-3.105469 5.316406-2.324219 8.300782.78125 2.980468 3.109376 5.3125 6.09375 6.09375 2.984376.78125 6.15625-.109376 8.296876-2.328126 6.492187-6.007812 10.441406-14.273437 11.035156-23.101562-.007813-4.609375-3.71875-8.355469-8.328125-8.410156-4.660157-.089844-8.539063 3.558594-8.738281 8.214844-.640626 4.332031-2.773438 8.304687-6.035157 11.230468zm0 0"/><path d="m194.742188 478.023438c4.714843 0 8.535156-3.820313 8.535156-8.535157 0-4.710937-3.820313-8.53125-8.535156-8.53125h-8.53125c-4.714844 0-8.535157 3.820313-8.535157 8.53125 0 4.714844 3.820313 8.535157 8.535157 8.535157zm0 0"/><path d="m288.609375 478.023438c4.714844 0 8.535156-3.820313 8.535156-8.535157 0-4.710937-3.820312-8.53125-8.535156-8.53125h-59.734375c-4.710938 0-8.53125 3.820313-8.53125 8.53125 0 4.714844 3.820312 8.535157 8.53125 8.535157zm0 0"/><path d="m109.410156 141.289062c3.40625 0 6.484375-2.019531 7.835938-5.144531 1.351562-3.125.71875-6.753906-1.613282-9.234375-29.566406-31.25-31.171874-79.644531-3.738281-112.785156 2.027344-2.339844 2.628907-5.59375 1.574219-8.503906-1.058594-2.910156-3.609375-5.019532-6.667969-5.511719-3.058593-.492187-6.140625.710937-8.058593 3.144531-32.90625 39.765625-31 97.828125 4.449218 135.347656 1.613282 1.714844 3.863282 2.6875 6.21875 2.6875zm0 0"/><path d="m257.320312 118.683594c2.011719 1.03125 4.355469 1.222656 6.507813.527344 2.15625-.695313 3.945313-2.214844 4.976563-4.230469 18.65625-36.328125 13.859374-80.28125-12.195313-111.726563-1.914063-2.433594-5-3.636718-8.058594-3.144531-3.054687.492187-5.605469 2.601563-6.664062 5.511719-1.058594 2.910156-.457031 6.164062 1.574219 8.503906 21.710937 26.195312 25.707031 62.8125 10.164062 93.074219-2.152344 4.191406-.496094 9.332031 3.695312 11.484375zm0 0"/></g></svg>